<mxfile host="app.diagrams.net" modified="2023-12-20T23:24:49.700Z" agent="Mozilla/5.0 (Macintosh; Intel Mac OS X 10_15_7) AppleWebKit/537.36 (KHTML, like Gecko) Chrome/120.0.0.0 Safari/537.36" etag="GCfPiuPh-ZDwp2E0gAS_" version="22.1.11" type="device">
  <diagram name="Page-1" id="vtc3H7QWTGBQVeGK8XM8">
    <mxGraphModel dx="1399" dy="785" grid="1" gridSize="10" guides="1" tooltips="1" connect="1" arrows="1" fold="1" page="1" pageScale="1" pageWidth="850" pageHeight="1100" math="0" shadow="0">
      <root>
        <mxCell id="0" />
        <mxCell id="1" parent="0" />
        <mxCell id="jlDc-I086ySutYxGqEFr-1" value="AWS Cloud" style="sketch=0;outlineConnect=0;html=1;whiteSpace=wrap;fontSize=12;fontStyle=0;shape=mxgraph.aws4.group;grIcon=mxgraph.aws4.group_aws_cloud;strokeColor=#d6b656;fillColor=#fff2cc;verticalAlign=top;align=left;spacingLeft=30;dashed=0;" parent="1" vertex="1">
          <mxGeometry x="40" y="40" width="400" height="230" as="geometry" />
        </mxCell>
        <mxCell id="4Yhx2beajEOZjzfuPdYO-14" value="VPC" style="sketch=0;outlineConnect=0;gradientColor=none;html=1;whiteSpace=wrap;fontSize=12;fontStyle=0;shape=mxgraph.aws4.group;grIcon=mxgraph.aws4.group_vpc;strokeColor=#879196;fillColor=none;verticalAlign=top;align=left;spacingLeft=30;fontColor=#879196;dashed=0;" parent="1" vertex="1">
          <mxGeometry x="149.5" y="54" width="270.5" height="196" as="geometry" />
        </mxCell>
        <mxCell id="jlDc-I086ySutYxGqEFr-2" value="" style="sketch=0;points=[[0,0,0],[0.25,0,0],[0.5,0,0],[0.75,0,0],[1,0,0],[0,1,0],[0.25,1,0],[0.5,1,0],[0.75,1,0],[1,1,0],[0,0.25,0],[0,0.5,0],[0,0.75,0],[1,0.25,0],[1,0.5,0],[1,0.75,0]];outlineConnect=0;fontColor=#232F3E;gradientColor=#F78E04;gradientDirection=north;fillColor=#D05C17;strokeColor=#ffffff;dashed=0;verticalLabelPosition=bottom;verticalAlign=top;align=center;html=1;fontSize=12;fontStyle=0;aspect=fixed;shape=mxgraph.aws4.resourceIcon;resIcon=mxgraph.aws4.lambda;" parent="1" vertex="1">
          <mxGeometry x="198" y="106" width="78" height="78" as="geometry" />
        </mxCell>
        <mxCell id="jlDc-I086ySutYxGqEFr-3" value="&lt;font style=&quot;font-size: 14px;&quot;&gt;&lt;span&gt;AWS Lambda&lt;/span&gt;&lt;/font&gt;" style="text;html=1;strokeColor=none;fillColor=none;align=center;verticalAlign=middle;whiteSpace=wrap;rounded=0;fontStyle=0" parent="1" vertex="1">
          <mxGeometry x="186.5" y="75" width="101" height="30" as="geometry" />
        </mxCell>
        <mxCell id="jlDc-I086ySutYxGqEFr-11" style="edgeStyle=orthogonalEdgeStyle;rounded=0;orthogonalLoop=1;jettySize=auto;html=1;exitX=0.5;exitY=0;exitDx=0;exitDy=0;entryX=0.5;entryY=1;entryDx=0;entryDy=0;entryPerimeter=0;" parent="1" source="jlDc-I086ySutYxGqEFr-4" target="jlDc-I086ySutYxGqEFr-2" edge="1">
          <mxGeometry relative="1" as="geometry">
            <mxPoint x="233" y="195" as="targetPoint" />
          </mxGeometry>
        </mxCell>
        <mxCell id="jlDc-I086ySutYxGqEFr-4" value="Lambda-Layer (Redis)" style="rounded=1;whiteSpace=wrap;html=1;fillColor=#dae8fc;strokeColor=#6c8ebf;" parent="1" vertex="1">
          <mxGeometry x="162" y="205" width="150" height="30" as="geometry" />
        </mxCell>
        <mxCell id="4Yhx2beajEOZjzfuPdYO-2" value="&lt;font style=&quot;font-size: 14px;&quot;&gt;&lt;span&gt;ElastiCache (Redis)&lt;br&gt;&lt;/span&gt;&lt;/font&gt;" style="text;html=1;strokeColor=none;fillColor=none;align=center;verticalAlign=middle;whiteSpace=wrap;rounded=0;fontStyle=0" parent="1" vertex="1">
          <mxGeometry x="302.5" y="71" width="100" height="30" as="geometry" />
        </mxCell>
        <mxCell id="4Yhx2beajEOZjzfuPdYO-3" value="" style="sketch=0;points=[[0,0,0],[0.25,0,0],[0.5,0,0],[0.75,0,0],[1,0,0],[0,1,0],[0.25,1,0],[0.5,1,0],[0.75,1,0],[1,1,0],[0,0.25,0],[0,0.5,0],[0,0.75,0],[1,0.25,0],[1,0.5,0],[1,0.75,0]];outlineConnect=0;fontColor=#232F3E;fillColor=#E7157B;strokeColor=#ffffff;dashed=0;verticalLabelPosition=bottom;verticalAlign=top;align=center;html=1;fontSize=12;fontStyle=0;aspect=fixed;shape=mxgraph.aws4.resourceIcon;resIcon=mxgraph.aws4.eventbridge;" parent="1" vertex="1">
          <mxGeometry x="60" y="106" width="78" height="78" as="geometry" />
        </mxCell>
        <mxCell id="4Yhx2beajEOZjzfuPdYO-4" value="" style="sketch=0;outlineConnect=0;fontColor=#232F3E;gradientColor=none;fillColor=#E7157B;strokeColor=none;dashed=0;verticalLabelPosition=bottom;verticalAlign=top;align=center;html=1;fontSize=12;fontStyle=0;aspect=fixed;pointerEvents=1;shape=mxgraph.aws4.eventbridge_scheduler;" parent="1" vertex="1">
          <mxGeometry x="75" y="184" width="48" height="48" as="geometry" />
        </mxCell>
        <mxCell id="4Yhx2beajEOZjzfuPdYO-8" value="" style="outlineConnect=0;dashed=0;verticalLabelPosition=bottom;verticalAlign=top;align=center;html=1;shape=mxgraph.aws3.elasticache;fillColor=#2E73B8;gradientColor=none;" parent="1" vertex="1">
          <mxGeometry x="318.75" y="105" width="67.5" height="81" as="geometry" />
        </mxCell>
        <mxCell id="4Yhx2beajEOZjzfuPdYO-9" style="edgeStyle=orthogonalEdgeStyle;rounded=0;orthogonalLoop=1;jettySize=auto;html=1;exitX=1;exitY=0.5;exitDx=0;exitDy=0;exitPerimeter=0;entryX=0;entryY=0.5;entryDx=0;entryDy=0;entryPerimeter=0;" parent="1" source="4Yhx2beajEOZjzfuPdYO-3" target="jlDc-I086ySutYxGqEFr-2" edge="1">
          <mxGeometry relative="1" as="geometry">
            <mxPoint x="160" y="144" as="sourcePoint" />
          </mxGeometry>
        </mxCell>
        <mxCell id="4Yhx2beajEOZjzfuPdYO-10" value="&lt;font style=&quot;font-size: 14px;&quot;&gt;&lt;span&gt;EventBridge&lt;br&gt;Scheduler&lt;br&gt;&lt;/span&gt;&lt;/font&gt;" style="text;html=1;strokeColor=none;fillColor=none;align=center;verticalAlign=middle;whiteSpace=wrap;rounded=0;fontStyle=0" parent="1" vertex="1">
          <mxGeometry x="48.5" y="71" width="101" height="38" as="geometry" />
        </mxCell>
        <mxCell id="4Yhx2beajEOZjzfuPdYO-11" style="edgeStyle=orthogonalEdgeStyle;rounded=0;orthogonalLoop=1;jettySize=auto;html=1;entryX=0.29;entryY=0.5;entryDx=0;entryDy=0;entryPerimeter=0;" parent="1" source="jlDc-I086ySutYxGqEFr-2" target="4Yhx2beajEOZjzfuPdYO-8" edge="1">
          <mxGeometry relative="1" as="geometry" />
        </mxCell>
        <mxCell id="4Yhx2beajEOZjzfuPdYO-13" value="&lt;font style=&quot;font-size: 14px;&quot;&gt;&lt;span&gt;&lt;br&gt;&lt;/span&gt;&lt;/font&gt;" style="text;html=1;strokeColor=none;fillColor=none;align=center;verticalAlign=middle;whiteSpace=wrap;rounded=0;fontStyle=0" parent="1" vertex="1">
          <mxGeometry x="322" y="195" width="100" height="30" as="geometry" />
        </mxCell>
      </root>
    </mxGraphModel>
  </diagram>
</mxfile>
